<svg width="378" height="319" viewBox="0 0 378 319" fill="none" xmlns="http://www.w3.org/2000/svg">
<path d="M215.887 315.642C165.415 311.792 110.061 290.264 68.0998 259.603C26.1157 228.925 -2.3267 189.214 0.723811 149.038C3.77755 108.819 34.3729 69.8959 76.9267 41.9687C119.467 14.0505 173.85 -2.80316 224.294 1.04433C274.613 4.88228 314.337 44.413 340.738 93.2173C367.132 142.01 380.122 199.922 377.06 240.248C375.528 260.416 370.99 275.658 363.506 287.069C356.027 298.471 345.582 306.087 332.159 310.965C318.724 315.848 302.309 317.986 282.911 318.416C263.516 318.847 241.171 317.57 215.887 315.642Z" fill="white" stroke="#6C63FF"/>
<path d="M138.06 89.13L66.014 160.275L138.06 231.42L154.27 215.21L99.786 160.725L154.72 105.79L138.06 89.13Z" fill="#6C63FF"/>
<path d="M244.327 89.13L316.373 160.275L244.327 231.42L228.117 215.21L282.602 160.725L227.667 105.79L244.327 89.13Z" fill="#6C63FF"/>
</svg>
